P1
65 8
00000000000000000000000000000000000000000000000000000000000000000
01110011011100000110011001011100011111010111011011100110011111111
10001100100011111001100111100011100010111010100110011001100000001
10001100000011110001100101100011100010101010100100011000100000010
11110100001111110001100101111011100010101010111000111000111000100
10100100000010000010100101100100000010111010100000011011100000100
10010100100010000100100111100100010010101111100010011001100001000
10001011011100001111011000011100001100000000100001100110011111111
